<?xml version="1.0" encoding="UTF-8"?>
<svg width="10px" height="15px" viewBox="0 0 10 15" version="1.1" xmlns="http://www.w3.org/2000/svg" xmlns:xlink="http://www.w3.org/1999/xlink">
    <!-- Generator: Sketch 52.2 (67145) - http://www.bohemiancoding.com/sketch -->
    <title>arrow</title>
    <desc>Created with Sketch.</desc>
    <g id="Desktop-version-4.0" stroke="none" stroke-width="1" fill="none" fill-rule="evenodd">
        <g id="404:desktop" transform="translate(-326.000000, -487.000000)" fill="#FFFFFF" fill-rule="nonzero">
            <g id="Group" transform="translate(326.000000, 412.000000)">
                <g id="Portfolio-Copy-2" transform="translate(0.000000, 68.000000)">
                    <g id="arrow" transform="translate(0.000000, 7.000000)">
                        <g id="Combined-Shape">
                            <g>
                                <path d="M8.50143143,7.49995462 L8.8009193,7.69980226 L9.10254374,7.5 L8.80191659,7.29943817 L8.50143143,7.49995462 Z M8.04888048,7.1979683 L8.35041827,6.99822344 L1.77635684e-15,1.42728571 L0.259304272,1 L8.8009193,6.69980226 L9.10254374,6.5 L1.77635684e-15,0.427285714 L0.259304272,-1.77635684e-15 L10,6.49994637 L9.25071571,6.99995049 L10,7.49994637 L9.25071571,7.99995049 L10,8.49994637 L0.259304272,15 L0,14.5297129 L9.10254374,8.5 L8.80191659,8.29943817 L0.259304272,14 L0,13.5297129 L8.35041827,7.99822344 L8.05254628,7.7994997 L0.259304272,13 L0,12.5297129 L7.5982928,7.49644688 L1.77635684e-15,2.42728571 L0.259304272,2 L8.04888048,7.1979683 Z"></path>
                            </g>
                        </g>
                    </g>
                </g>
            </g>
        </g>
    </g>
</svg>