<?xml version="1.0" encoding="UTF-8"?>
<svg width="15px" height="16px" viewBox="0 0 15 16" version="1.1" xmlns="http://www.w3.org/2000/svg" xmlns:xlink="http://www.w3.org/1999/xlink">
    <!-- Generator: Sketch 52.2 (67145) - http://www.bohemiancoding.com/sketch -->
    <title>loaders copy 2</title>
    <desc>Created with Sketch.</desc>
    <g id="Symbols" stroke="none" stroke-width="1" fill="none" fill-rule="evenodd">
        <g id="list/bullet" transform="translate(-2.000000, -9.000000)">
            <g id="point">
                <g id="loaders-copy-2" transform="translate(0.000000, 7.000000)">
                    <g id="point">
                        <path d="M10,17 C13.8659932,17 17,13.8659932 17,10 C17,6.13400675 13.8659932,3 10,3 C6.13400675,3 3,6.13400675 3,10 C3,13.8659932 6.13400675,17 10,17 Z" id="Oval" stroke="#02A0A7" stroke-dasharray="7" transform="translate(10.000000, 10.000000) scale(-1, -1) rotate(-315.000000) translate(-10.000000, -10.000000) "></path>
                        <path d="M10,13 C11.6568542,13 13,11.6568542 13,10 C13,8.34314575 11.6568542,7 10,7 C8.34314575,7 7,8.34314575 7,10 C7,11.6568542 8.34314575,13 10,13 Z" id="Oval-Copy" fill="#02A0A7" transform="translate(10.000000, 10.000000) scale(-1, -1) translate(-10.000000, -10.000000) "></path>
                        <path d="M10,14 C12.209139,14 14,12.209139 14,10 C14,7.790861 12.209139,6 10,6 C7.790861,6 6,7.790861 6,10 C6,12.209139 7.790861,14 10,14 Z" id="Oval-Copy-5" stroke="#02A0A7" stroke-width="0.5" stroke-dasharray="1" transform="translate(10.000000, 10.000000) scale(-1, -1) translate(-10.000000, -10.000000) "></path>
                    </g>
                </g>
            </g>
        </g>
    </g>
</svg>