<?xml version="1.0" encoding="UTF-8"?>
<svg width="212px" height="58px" viewBox="0 0 212 58" version="1.1" xmlns="http://www.w3.org/2000/svg" xmlns:xlink="http://www.w3.org/1999/xlink" style="background: #000000;">
    <!-- Generator: Sketch 48.1 (47250) - http://www.bohemiancoding.com/sketch -->
    <title>Button</title>
    <desc>Created with Sketch.</desc>
    <defs>
        <polygon id="path-1" points="5 1 5 0 190 8.8817842e-16 190 1"></polygon>
        <mask id="mask-2" maskContentUnits="userSpaceOnUse" maskUnits="objectBoundingBox" x="0" y="0" width="185" height="1" fill="white">
            <use xlink:href="#path-1"></use>
        </mask>
        <polygon id="path-3" points="5 38 5 37 190 37 190 38"></polygon>
        <mask id="mask-4" maskContentUnits="userSpaceOnUse" maskUnits="objectBoundingBox" x="0" y="0" width="185" height="1" fill="white">
            <use xlink:href="#path-3"></use>
        </mask>
    </defs>
    <g id="Resources" stroke="none" stroke-width="1" fill="none" fill-rule="evenodd">
        <g id="Button">
            <g id="btn" transform="translate(9.000000, 10.000000)">
                <g id="border">
                    <g id="right" transform="translate(193.000000, 19.000000) scale(-1, 1) translate(-193.000000, -19.000000) translate(191.000000, 0.000000)" fill="#FFFFFF">
                        <path d="M1,0 L1,38 L1,38 C0.44771525,38 6.76353751e-17,37.5522847 0,37 L0,1 C-6.76353751e-17,0.44771525 0.44771525,1.01453063e-16 1,0 Z" id="Rectangle-7"></path>
                        <path d="M1,1 L1,0 L4,0 L4,0 C4,0.55228475 3.55228475,1 3,1 L1,1 Z" id="Rectangle-7-Copy"></path>
                        <path d="M1,38 L1,37 L3,37 C3.55228475,37 4,37.4477153 4,38 L1,38 Z" id="Rectangle-7-Copy-2"></path>
                    </g>
                    <g id="left" fill="#FFFFFF">
                        <path d="M1,0 L1,38 L1,38 C0.44771525,38 6.76353751e-17,37.5522847 0,37 L0,1 C-6.76353751e-17,0.44771525 0.44771525,1.01453063e-16 1,0 Z" id="Rectangle-7"></path>
                        <path d="M1,1 L1,0 L4,0 L4,0 C4,0.55228475 3.55228475,1 3,1 L1,1 Z" id="Rectangle-7-Copy"></path>
                        <path d="M1,38 L1,37 L3,37 C3.55228475,37 4,37.4477153 4,38 L1,38 Z" id="Rectangle-7-Copy-2"></path>
                    </g>
                    <use id="top" stroke="#FFFFFF" mask="url(#mask-2)" stroke-width="2" opacity="0.119999997" stroke-dasharray="1" xlink:href="#path-1"></use>
                    <use id="bottom" stroke="#FFFFFF" mask="url(#mask-4)" stroke-width="2" opacity="0.119999997" stroke-dasharray="1" xlink:href="#path-3"></use>
                </g>
                <rect id="overlay" fill="#49DDBA" opacity="0.119999997" x="7" y="7" width="24" height="24"></rect>
            </g>
        </g>
    </g>
</svg>