<?xml version="1.0" encoding="UTF-8"?>
<svg width="30px" height="28px" viewBox="0 0 30 28" version="1.1" xmlns="http://www.w3.org/2000/svg" xmlns:xlink="http://www.w3.org/1999/xlink">
    <!-- Generator: Sketch 52.2 (67145) - http://www.bohemiancoding.com/sketch -->
    <title>quote@3x</title>
    <desc>Created with Sketch.</desc>
    <g id="quote" stroke="none" stroke-width="1" fill="none" fill-rule="evenodd">
        <path d="M13.72,15.448 C13.72,16.3760046 13.3920033,17.1679967 12.736,17.824 C12.0799967,18.4800033 11.2880046,18.808 10.36,18.808 C9.43199536,18.808 8.64000328,18.4800033 7.984,17.824 C7.32799672,17.1679967 7,16.3760046 7,15.448 L7,10.744 C7,9.65599456 7.34399656,8.76000352 8.032,8.056 C8.72000344,7.35199648 9.60799456,7 10.696,7 L13.144,7 L13.144,9.592 L10.888,9.592 C10.0239957,9.592 9.592,10.0719952 9.592,11.032 L9.592,12.232 C9.81600112,12.1359995 10.0879984,12.088 10.408,12.088 C11.3040045,12.088 12.0799967,12.4159967 12.736,13.072 C13.3920033,13.7280033 13.72,14.5199954 13.72,15.448 Z M22.456,15.448 C22.456,16.3760046 22.1280033,17.1679967 21.472,17.824 C20.8159967,18.4800033 20.0240046,18.808 19.096,18.808 C18.1679954,18.808 17.3760033,18.4800033 16.72,17.824 C16.0639967,17.1679967 15.736,16.3760046 15.736,15.448 L15.736,10.744 C15.736,9.65599456 16.0799966,8.76000352 16.768,8.056 C17.4560034,7.35199648 18.3439946,7 19.432,7 L21.88,7 L21.88,9.592 L19.624,9.592 C18.7599957,9.592 18.328,10.0719952 18.328,11.032 L18.328,12.232 C18.5520011,12.1359995 18.8239984,12.088 19.144,12.088 C20.0400045,12.088 20.8159967,12.4159967 21.472,13.072 C22.1280033,13.7280033 22.456,14.5199954 22.456,15.448 Z" id="“" fill="#F8E71C"></path>
    </g>
</svg>