<?xml version="1.0" encoding="UTF-8"?>
<svg width="64px" height="64px" viewBox="0 0 64 64" version="1.1" xmlns="http://www.w3.org/2000/svg" xmlns:xlink="http://www.w3.org/1999/xlink">
    <!-- Generator: Sketch 52.2 (67145) - http://www.bohemiancoding.com/sketch -->
    <title>hover-prev-btn</title>
    <desc>Created with Sketch.</desc>
    <g id="hover-prev-btn" stroke="none" stroke-width="1" fill="none" fill-rule="evenodd">
        <g id="icon" transform="translate(32.000000, 32.000000) scale(-1, 1) rotate(-270.000000) translate(-32.000000, -32.000000) translate(8.000000, 8.000000)">
            <g id="Group-2">
                <path d="M23.7730163,43.0587306 C34.4242222,43.0587306 43.0587306,34.4242222 43.0587306,23.7730163 C43.0587306,13.1218104 34.4242222,4.48730204 23.7730163,4.48730204 C13.1218104,4.48730204 4.48730204,13.1218104 4.48730204,23.7730163 C4.48730204,34.4242222 13.1218104,43.0587306 23.7730163,43.0587306 Z" id="Oval-Copy-2" fill="#02A0A7" transform="translate(23.773016, 23.773016) rotate(-6.000000) translate(-23.773016, -23.773016) "></path>
                <g id="arrow" transform="translate(24.000000, 23.773016) rotate(-90.000000) translate(-24.000000, -23.773016) translate(19.000000, 16.273016)" fill="#FFFFFF" fill-rule="nonzero">
                    <g id="Combined-Shape">
                        <g>
                            <path d="M8.50143143,7.49995462 L8.8009193,7.69980226 L9.10254374,7.5 L8.80191659,7.29943817 L8.50143143,7.49995462 Z M8.04888048,7.1979683 L8.35041827,6.99822344 L1.77635684e-15,1.42728571 L0.259304272,1 L8.8009193,6.69980226 L9.10254374,6.5 L1.77635684e-15,0.427285714 L0.259304272,-1.77635684e-15 L10,6.49994637 L9.25071571,6.99995049 L10,7.49994637 L9.25071571,7.99995049 L10,8.49994637 L0.259304272,15 L0,14.5297129 L9.10254374,8.5 L8.80191659,8.29943817 L0.259304272,14 L0,13.5297129 L8.35041827,7.99822344 L8.05254628,7.7994997 L0.259304272,13 L0,12.5297129 L7.5982928,7.49644688 L1.77635684e-15,2.42728571 L0.259304272,2 L8.04888048,7.1979683 Z"></path>
                        </g>
                    </g>
                </g>
                <path d="M24,47.1428571 C36.7814471,47.1428571 47.1428571,36.7814471 47.1428571,24 C47.1428571,11.2185529 36.7814471,0.857142857 24,0.857142857 C11.2185529,0.857142857 0.857142857,11.2185529 0.857142857,24 C0.857142857,36.7814471 11.2185529,47.1428571 24,47.1428571 Z" id="Path-Copy" stroke="#FFFFFF" opacity="0.719999969" stroke-dasharray="1" fill-rule="nonzero"></path>
            </g>
        </g>
    </g>
</svg>