<svg width="42px" height="40px" viewBox="0 0 42 40" version="1.1" xmlns="http://www.w3.org/2000/svg" xmlns:xlink="http://www.w3.org/1999/xlink">
    <!-- Generator: Sketch 50.2 (55047) - http://www.bohemiancoding.com/sketch -->
    <desc>Created with Sketch.</desc>
    <defs></defs>
    <g id="Guidelines" stroke="none" stroke-width="1" fill="none" fill-rule="evenodd">
        <g id="Buttons" transform="translate(-327.000000, -459.000000)">
            <g id="previous-btn" transform="translate(327.000000, 460.000000)">
                <g id="icon" transform="translate(21.000000, 19.000000) scale(-1, 1) rotate(-270.000000) translate(-21.000000, -19.000000) translate(2.000000, -2.000000)">
                    <path d="M-0.0714870733,25.6880595 C0.397452435,26.1348877 0.890809468,26.5563191 1.40637793,26.9501477 C3.81694983,34.9966669 10.9870214,40.8333333 19.4573382,40.8333333 C27.0631314,40.8333333 33.6205537,36.1273043 36.6251277,29.3410354 C37.1314431,29.1401028 37.6263212,28.9165503 38.1085149,28.671625 C35.1861832,36.4752384 27.9371415,42 19.4573382,42 C9.93226128,42 1.96006962,35.0292587 -0.0714870733,25.6880595 Z M0.998565552,12.8333333 C4.03756093,5.29213611 11.15798,-2.22044605e-14 19.4573382,-2.22044605e-14 C27.7566964,-2.22044605e-14 34.8771154,5.29213611 37.9161108,12.8333333 L36.7013516,12.8333333 C33.7325102,5.95344118 27.1281036,1.16666667 19.4573382,1.16666667 C11.7865728,1.16666667 5.18216621,5.95344118 2.2133287,12.8333326 L0.998565552,12.8333333 Z" id="Combined-Shape" fill="#FFFFFF" fill-rule="nonzero" transform="translate(19.000000, 21.000000) rotate(-360.000000) translate(-19.000000, -21.000000) "></path>
                    <g transform="translate(7.000000, 8.000000)">
                        <g id="slider" transform="translate(4.000000, 8.400000)" fill="#FFFFFF" fill-rule="nonzero">
                            <g id="sort-down" transform="translate(8.299465, 3.840000) rotate(-180.000000) translate(-8.299465, -3.840000) translate(0.770053, 0.106667)">
                                <path d="M14.7792926,0.246260117 C14.5931446,0.0820413036 14.3724866,3.55271368e-15 14.1175247,3.55271368e-15 L0.941247293,3.55271368e-15 C0.68618236,3.55271368e-15 0.465678931,0.0820413036 0.279376454,0.246260117 C0.0930739772,0.410660537 -7.10542736e-15,0.605026238 -7.10542736e-15,0.829720434 C-7.10542736e-15,1.05436923 0.0930739772,1.24873493 0.279376454,1.41299914 L6.86754093,7.22022494 C7.05404943,7.38444376 7.27455286,7.46666667 7.52941176,7.46666667 C7.78427067,7.46666667 8.00498013,7.38444376 8.19112808,7.22022494 L14.7792926,1.41295374 C14.965389,1.24873493 15.0588235,1.05436923 15.0588235,0.829675032 C15.0588235,0.605026238 14.965389,0.410660537 14.7792926,0.246260117 Z" id="Shape"></path>
                            </g>
                        </g>
                        <rect id="bound" x="0" y="0" width="24" height="25.2"></rect>
                    </g>
                </g>
            </g>
        </g>
    </g>
</svg>