<?xml version="1.0" encoding="UTF-8"?>
<svg width="64px" height="64px" viewBox="0 0 64 64" version="1.1" xmlns="http://www.w3.org/2000/svg" xmlns:xlink="http://www.w3.org/1999/xlink">
    <!-- Generator: Sketch 52.2 (67145) - http://www.bohemiancoding.com/sketch -->
    <title>Artboard</title>
    <desc>Created with Sketch.</desc>
    <g id="Artboard" stroke="none" stroke-width="1" fill="none" fill-rule="evenodd">
        <g id="icon" transform="translate(32.000000, 32.000000) scale(-1, 1) rotate(-270.000000) translate(-32.000000, -32.000000) translate(5.000000, 5.000000)">
            <g id="Group-2">
                <path d="M26.7730163,46.0587306 C37.4242222,46.0587306 46.0587306,37.4242222 46.0587306,26.7730163 C46.0587306,16.1218104 37.4242222,7.48730204 26.7730163,7.48730204 C16.1218104,7.48730204 7.48730204,16.1218104 7.48730204,26.7730163 C7.48730204,37.4242222 16.1218104,46.0587306 26.7730163,46.0587306 Z" id="Oval-Copy-4" stroke="#02A0A7" stroke-width="2" stroke-dasharray="20,9999" transform="translate(26.773016, 26.773016) rotate(-214.000000) translate(-26.773016, -26.773016) "></path>
                <path d="M26.7730163,46.0587306 C37.4242222,46.0587306 46.0587306,37.4242222 46.0587306,26.7730163 C46.0587306,16.1218104 37.4242222,7.48730204 26.7730163,7.48730204 C16.1218104,7.48730204 7.48730204,16.1218104 7.48730204,26.7730163 C7.48730204,37.4242222 16.1218104,46.0587306 26.7730163,46.0587306 Z" id="Oval-Copy-2" stroke="#02A0A7" stroke-width="2" stroke-dasharray="40,9999" transform="translate(26.773016, 26.773016) rotate(-6.000000) translate(-26.773016, -26.773016) "></path>
                <g id="arrow" transform="translate(27.000000, 26.773016) rotate(-90.000000) translate(-27.000000, -26.773016) translate(22.000000, 19.273016)" fill="#FFFFFF" fill-rule="nonzero">
                    <g id="Combined-Shape">
                        <g>
                            <path d="M8.50143143,7.49995462 L8.8009193,7.69980226 L9.10254374,7.5 L8.80191659,7.29943817 L8.50143143,7.49995462 Z M8.04888048,7.1979683 L8.35041827,6.99822344 L1.77635684e-15,1.42728571 L0.259304272,1 L8.8009193,6.69980226 L9.10254374,6.5 L1.77635684e-15,0.427285714 L0.259304272,-1.77635684e-15 L10,6.49994637 L9.25071571,6.99995049 L10,7.49994637 L9.25071571,7.99995049 L10,8.49994637 L0.259304272,15 L0,14.5297129 L9.10254374,8.5 L8.80191659,8.29943817 L0.259304272,14 L0,13.5297129 L8.35041827,7.99822344 L8.05254628,7.7994997 L0.259304272,13 L0,12.5297129 L7.5982928,7.49644688 L1.77635684e-15,2.42728571 L0.259304272,2 L8.04888048,7.1979683 Z"></path>
                        </g>
                    </g>
                </g>
                <path d="M27,50.1428571 C39.7814471,50.1428571 50.1428571,39.7814471 50.1428571,27 C50.1428571,14.2185529 39.7814471,3.85714286 27,3.85714286 C14.2185529,3.85714286 3.85714286,14.2185529 3.85714286,27 C3.85714286,39.7814471 14.2185529,50.1428571 27,50.1428571 Z" id="Path-Copy" stroke="#FFFFFF" opacity="0.719999969" stroke-dasharray="1" fill-rule="nonzero"></path>
            </g>
        </g>
    </g>
</svg>