<svg width="4px" height="37px" viewBox="0 0 4 37" version="1.1" xmlns="http://www.w3.org/2000/svg" xmlns:xlink="http://www.w3.org/1999/xlink">
    <!-- Generator: Sketch 50.2 (55047) - http://www.bohemiancoding.com/sketch -->
    <desc>Created with Sketch.</desc>
    <defs></defs>
    <g id="Desktop" stroke="none" stroke-width="1" fill="none" fill-rule="evenodd">
        <g id="Full-conversation" transform="translate(-405.000000, -3496.000000)" fill="#49DDBA">
            <g id="Contact-me:-confirmation" transform="translate(371.000000, 3420.000000)">
                <g id="leave-me-a-message-btn" transform="translate(34.000000, 76.000000)">
                    <g id="border">
                        <g id="left">
                            <path d="M1,0 L1,36.0263158 L1,36.0263158 C0.44771525,36.0263158 6.76353751e-17,35.5786005 0,35.0263158 L0,1 C-6.76353751e-17,0.44771525 0.44771525,1.01453063e-16 1,0 Z" id="Rectangle-7"></path>
                            <path d="M1,0.948060942 L1,0 L4,0 L4,0 C4,0.5235996 3.57553866,0.948060942 3.05193906,0.948060942 L1,0.948060942 Z" id="Rectangle-7-Copy"></path>
                            <path d="M1,36.0263158 L1,35.0782548 L3.05193906,35.0782548 C3.57553866,35.0782548 4,35.5027162 4,36.0263158 L1,36.0263158 Z" id="Rectangle-7-Copy-2"></path>
                        </g>
                    </g>
                </g>
            </g>
        </g>
    </g>
</svg>