<?xml version="1.0" encoding="UTF-8"?>
<svg width="256px" height="149px" viewBox="0 0 256 149" version="1.1" xmlns="http://www.w3.org/2000/svg" xmlns:xlink="http://www.w3.org/1999/xlink">
    <!-- Generator: Sketch 48.1 (47250) - http://www.bohemiancoding.com/sketch -->
    <title>Logo</title>
    <desc>Created with Sketch.</desc>
    <defs></defs>
    <g id="Resources" stroke="none" stroke-width="1" fill="none" fill-rule="evenodd">
        <g id="Logo" fill="#49DDBA">
            <g id="Logo-#1" transform="translate(6.000000, 3.000000)">
                <g id="Group-3">
                    <path d="M67.6019512,0.179004525 C30.2641463,0.549502262 0,31.1634389 0,68.7419005 C0,106.545158 30.6331707,137.300633 68.2860976,137.300633 C77.1122764,137.300633 89.4960163,133.624796 105.437317,126.273122 L93.0521951,107.127964 C82.4320325,112.023529 74.1766667,114.471312 68.2860976,114.471312 C43.1717073,114.471312 22.7385366,93.9565611 22.7385366,68.7419005 C22.7385366,43.5230769 43.1717073,23.0041629 68.2860976,23.0041629 C78.0631707,23.0041629 88.6943902,26.7466063 92.9402439,30.2101357 C95.9366667,32.652368 112.808332,47.892878 143.555239,75.9316656 L159.887678,60.0460548 C129.39508,32.079424 111.858618,16.2297436 107.278293,12.4970136 C98.5336585,5.35764706 82.8646341,0.33719457 68.9495122,0.179004525 L67.6019512,0.179004525 Z" id="Fill-1"></path>
                </g>
                <g id="Group-6" transform="translate(89.000000, 5.000000)">
                    <path d="M62.0784401,30.5649091 C72.671011,25.6470909 80.9027864,23.1881818 86.7737663,23.1881818 C111.824659,23.1881818 132.19944,43.7961818 132.19944,69.1296364 C132.19944,94.4589091 111.824659,115.071091 86.7737663,115.071091 C77.0287665,115.071091 66.4237921,111.311636 62.1942059,107.832364 C59.209102,105.376242 44.1375008,90.4192711 16.9794024,62.9614496 L0.697769204,78.9234496 C27.5967728,106.305998 43.3298928,121.874909 47.8971293,125.630182 C56.7532132,132.910727 72.7454318,138 86.7737663,138 C124.323231,138 154.868865,107.104727 154.868865,69.1296364 C154.868865,31.1545455 124.323231,0.259272727 86.7737663,0.259272727 C77.9728091,0.259272727 65.625835,3.95042424 49.7328442,11.3327273 L62.0784401,30.5649091 Z" id="Fill-4"></path>
                </g>
            </g>
        </g>
    </g>
</svg>