<?xml version="1.0" encoding="UTF-8"?>
<svg width="88px" height="88px" viewBox="0 0 88 88" version="1.1" xmlns="http://www.w3.org/2000/svg" xmlns:xlink="http://www.w3.org/1999/xlink">
    <!-- Generator: Sketch 48.1 (47250) - http://www.bohemiancoding.com/sketch -->
    <title>Menu</title>
    <desc>Created with Sketch.</desc>
    <defs></defs>
    <g id="Resources" stroke="none" stroke-width="1" fill="none" fill-rule="evenodd">
        <g id="Menu" fill-rule="nonzero">
            <g transform="translate(10.000000, 8.000000)">
                <path d="M1.37973615,51.2490928 C2.22596578,51.5636897 3.10067972,51.8197161 3.99895139,52.0122457 C9.72433223,62.7171034 21.0116603,70 34,70 C46.8169329,70 57.9774543,62.9080594 63.7714783,52.4342642 L66,52.4342642 C66.0128178,52.4342642 66.0256327,52.4342515 66.0384445,52.4342261 C60.0669428,64.0522354 47.9616213,72 34,72 C19.5685775,72 7.1204838,63.5083602 1.37974062,51.2491023 Z M0.823637356,21.9999992 C6.28569159,9.07223296 19.083379,-2.84217094e-14 34,-2.84217094e-14 C48.916621,-2.84217094e-14 61.7143084,9.07223296 67.1763626,21.9999992 L64.9930493,22 C59.6570844,10.2058992 47.7868374,2 34,2 C20.2131626,2 8.34291562,10.2058992 3.00695787,21.9999987 L0.823632493,22 Z" id="Combined-Shape" fill="#FFFFFF"></path>
                <path d="M34,66 L34,64 C34.322857,64 34.6450497,63.9945399 34.9664915,63.9836433 L35.0342506,65.9824952 C34.690232,65.994157 34.3454497,66 34,66 Z M36.0673912,65.9298402 L35.9315142,63.9344611 C36.2532104,63.912555 36.5740025,63.8851768 36.8937969,63.8523561 L37.0979858,65.8419055 C36.7554606,65.8770591 36.4118946,65.9063809 36.0673912,65.9298402 Z M38.1285277,65.7181278 L37.8557347,63.7368191 C38.1752565,63.6928263 38.4936139,63.6433658 38.8107062,63.5884735 L39.1518547,65.5591632 C38.812048,65.6179875 38.470902,65.6709886 38.1285277,65.7181278 Z M40.1722151,65.3641985 L39.7627367,63.4065653 C40.0780171,63.3406181 40.3918614,63.2692594 40.704163,63.1925327 L41.1813361,65.1347752 C40.8465701,65.217021 40.5101575,65.293511 40.1722151,65.3641985 Z M42.1970098,64.8661643 L41.6516317,62.9419599 C41.9611172,62.8542422 42.2688821,62.7612037 42.574815,62.6628955 L43.1866792,64.5670022 C42.8587131,64.6723905 42.5287829,64.7721297 42.1970098,64.8661643 Z M44.1923445,64.2239262 L43.5129287,62.3428642 C43.8154708,62.2335899 44.1159929,62.1191051 44.4143792,61.9994698 L45.1586659,63.8558203 C44.8388115,63.984063 44.5166627,64.1067866 44.1923445,64.2239262 Z M46.0849638,63.4661835 L45.2785497,61.635966 C45.572949,61.5062504 45.8650302,61.3714616 46.1546748,61.2316682 L47.0239963,63.0328567 C46.7135621,63.182684 46.4005087,63.3271509 46.0849638,63.4661835 Z M47.9591416,62.5611429 L47.0272596,60.7915114 C47.3119571,60.6415906 47.594029,60.4867659 47.8733554,60.3271147 L48.8658022,62.0635044 C48.5664894,62.234579 48.2642264,62.4004863 47.9591416,62.5611429 Z M49.7700697,61.5253919 L48.7173096,59.8248931 C48.9908024,59.6555767 49.2613644,59.4815576 49.528876,59.3029222 L50.6395431,60.9661775 C50.3529513,61.1575541 50.0630843,61.3439897 49.7700697,61.5253919 Z M51.5082468,60.3637366 L50.3398033,58.7405485 C50.6011115,58.5524471 50.8591791,58.359858 51.1138881,58.1628759 L52.3374112,59.7449603 C52.0645839,59.9559544 51.7881538,60.162247 51.5082468,60.3637366 Z M53.1666201,59.0799841 L51.8880697,57.5420279 C52.1356077,57.336242 52.3796085,57.1262164 52.6199577,56.9120534 L53.9504866,58.405269 C53.6930706,58.6346394 53.4317411,58.8595808 53.1666201,59.0799841 Z M54.6606472,57.7518101 L53.2830494,56.3019052 C53.516591,56.0800103 53.7463158,55.854122 53.9721137,55.6243488 L55.3986133,57.0261686 C55.1567911,57.2722482 54.9107634,57.5141673 54.6606472,57.7518101 Z M56.1162957,56.2701674 L54.6422348,54.9184484 C54.8597182,54.6812809 55.073122,54.4404058 55.2823425,54.1959364 L56.8018522,55.4963557 C56.5777745,55.7581853 56.3492189,56.0161628 56.1162957,56.2701674 Z M57.4690672,54.6887432 L55.9052961,53.4418992 C56.1060163,53.1901592 56.3023968,52.9349975 56.4943409,52.6765315 L58.1000045,53.8689428 C57.8944055,54.1457958 57.6840587,54.4191043 57.4690672,54.6887432 Z M58.7096719,53.0174194 L57.0634827,51.8816108 C57.2463508,51.6165701 57.4246419,51.3484062 57.5982675,51.0772387 L59.2825892,52.1556914 C59.0965786,52.4462017 58.9055746,52.7334869 58.7096719,53.0174194 Z M59.8343602,51.2597313 L58.1132607,50.2409987 C58.2771854,49.9640558 58.4363245,49.6842987 58.5905983,49.4018475 L60.3458417,50.3605552 C60.1805282,50.6632184 60.0100058,50.9629866 59.8343602,51.2597313 Z M60.8336389,49.4289248 L59.0457834,48.5325027 C59.1899928,48.2448864 59.3292308,47.9547648 59.4634265,47.6622573 L61.2812506,48.496233 C61.1374219,48.8097377 60.9881926,49.1206776 60.8336389,49.4289248 Z M61.7044871,47.5289006 L59.8582897,46.7597743 C59.9820331,46.4627429 60.1006436,46.1635133 60.2140594,45.8622022 L62.08585,46.566759 C61.9642733,46.8897508 61.8371301,47.2105067 61.7044871,47.5289006 Z M62.4414382,45.5685599 L60.5457667,44.9310415 C60.648281,44.6262137 60.7455381,44.3194933 60.8374851,44.0109932 L62.7541658,44.5822507 C62.6555968,44.9129689 62.5513352,45.2417794 62.4414382,45.5685599 Z M63.0391342,43.5599 L61.1033128,43.0573113 C61.1841047,42.7461248 61.2595458,42.4333427 61.3295912,42.1190723 L63.2816919,42.5541616 C63.2066088,42.8910344 63.1257402,43.2263197 63.0391342,43.5599 Z M63.4949783,41.5096678 L61.5285839,41.1445746 C61.5872793,40.8284408 61.6405595,40.510996 61.6883875,40.1923418 L63.666233,40.4892038 C63.6149805,40.8306742 63.5578823,41.1708661 63.4949783,41.5096678 Z M63.794713,39.5274307 L61.8083018,39.2946856 C61.8457069,38.9754434 61.877673,38.65515 61.9041692,38.3339003 L63.897401,38.4982995 C63.8690222,38.8423741 63.8347821,39.1854528 63.794713,39.5274307 Z M63.9609072,37.5444587 L61.9634767,37.4431098 C61.9797664,37.122065 61.9906196,36.8002106 61.9960112,36.477635 L63.9957319,36.5110587 C63.9899616,36.8562898 63.9783448,37.2007891 63.9609072,37.5444587 Z M63.9953922,35.4690087 L61.9956938,35.5037383 C61.9900895,35.1810493 61.9790193,34.8590843 61.9625084,34.5379319 L63.9598705,34.4352447 C63.9775451,34.7790323 63.9893942,35.1236531 63.9953922,35.4690087 Z M63.8891117,33.4031686 L61.8964293,33.5740981 C61.8689068,33.2532426 61.8359248,32.9333537 61.7975142,32.6145264 L63.7831562,32.3753071 C63.8243034,32.71685 63.8596328,33.0595056 63.8891117,33.4031686 Z M63.6411451,31.3467456 L61.6649751,31.6545639 C61.6154423,31.3365672 61.560473,31.0197986 61.5001049,30.7043598 L63.4644556,30.3284256 C63.5291541,30.6664917 63.588064,31.0059689 63.6411451,31.3467456 Z M63.249673,29.3038143 L61.2997201,29.7484306 C61.2281793,29.434674 61.1512532,29.122424 61.0689872,28.8117882 L63.0023376,28.2997766 C63.0905246,28.6327696 63.172986,28.967488 63.249673,29.3038143 Z M62.7150066,27.2874513 L60.8009567,27.8674623 C60.7076554,27.5595658 60.6090567,27.2534663 60.5052141,26.9492765 L62.3979654,26.3031398 C62.5092861,26.6292355 62.6149858,26.9573801 62.7150066,27.2874513 Z M62.0525943,25.3453121 L60.1830365,26.0557721 C60.0687632,25.7550649 59.9493098,25.4564494 59.8247382,25.1600424 L61.6685233,24.385151 C61.8020532,24.7028737 61.9300992,25.0229693 62.0525943,25.3453121 Z M61.2470081,23.4293976 L59.431478,24.2683556 C59.2963472,23.9759286 59.1561707,23.6859044 59.0110197,23.3984026 L60.7963827,22.4970265 C60.9519442,22.8051484 61.1021783,23.1159816 61.2470081,23.4293976 Z M60.3072181,21.5689562 L58.5545548,22.5323726 C58.3993779,22.2500722 58.2393341,21.9704828 58.0745034,21.693725 L59.7928331,20.6703272 C59.9694479,20.9668711 60.1409383,21.2664571 60.3072181,21.5689562 Z M59.2388018,19.7761244 L57.5573964,20.8591184 C57.3830973,20.5885098 57.2041443,20.3209147 57.020626,20.0564525 L58.6637616,18.916231 C58.8603595,19.1995416 59.0520712,19.4862153 59.2388018,19.7761244 Z M58.045454,18.0578335 L56.4434142,19.255109 C56.2507261,18.9972786 56.0536141,18.7427642 55.8521748,18.4916831 L57.41217,17.2401181 C57.6279305,17.5090497 57.8390596,17.7816631 58.045454,18.0578335 Z M56.7310194,16.4211791 L55.2162067,17.7270667 C55.0060725,17.4833138 54.7917672,17.2431712 54.5733948,17.0067523 L56.0425692,15.6497238 C56.2764437,15.9029259 56.5059641,16.1601179 56.7310194,16.4211791 Z M55.3805035,14.9554185 L53.9552039,16.3584584 C53.7293197,16.1289905 53.4995158,15.903407 53.2659022,15.6818164 L54.642283,14.2307562 C54.8924763,14.4680732 55.1385889,14.7096658 55.3805035,14.9554185 Z M53.8732373,13.5261349 L52.5478294,15.023898 C52.3066887,14.8105065 52.0619087,14.6012674 51.8136044,14.3962827 L53.0868642,12.8539437 C53.3528073,13.0734899 53.6149724,13.2975899 53.8732373,13.5261349 Z M52.267598,12.2012119 L51.0487101,13.7868702 C50.7933554,13.5905803 50.5346528,13.398696 50.2727204,13.2113118 L51.4363875,11.584696 C51.7169651,11.7854188 51.9940773,11.9909578 52.267598,12.2012119 Z M50.5735335,10.9898692 L49.4672597,12.65605 C49.1991273,12.4780213 48.9279525,12.3046225 48.6538553,12.1359398 L49.7020841,10.4326441 C49.9957485,10.6133687 50.2862743,10.7991412 50.5735335,10.9898692 Z M48.7970112,9.89729802 L47.8091564,11.6363043 C47.5292116,11.4772796 47.246529,11.3230956 46.961229,11.1738297 L47.8883804,9.40171504 C48.1941133,9.56167126 48.4970332,9.72689337 48.7970112,9.89729802 Z M46.9465407,8.92989758 L46.0824049,10.7335797 C45.7922019,10.5945448 45.4995722,10.4605268 45.2046346,10.3315941 L46.0057376,8.49904563 C46.3218618,8.6372401 46.6355054,8.78088202 46.9465407,8.92989758 Z M45.0310032,8.09333574 L44.2952836,9.95309829 C43.9960966,9.83474031 43.6947902,9.7215506 43.3914803,9.61358866 L44.0621526,7.72939158 C44.3872959,7.84512504 44.7102878,7.9664612 45.0310032,8.09333574 Z M43.0568378,7.39160238 L42.4536967,9.29849008 C42.1470227,9.20149031 41.8385326,9.10977727 41.5283379,9.0234018 L42.0648379,7.09670315 C42.3973704,7.18929868 42.7280775,7.28761674 43.0568378,7.39160238 Z M41.0360558,6.82991837 L40.5686338,8.7745306 C40.2559423,8.69936967 39.9417286,8.62958232 39.6260989,8.56521134 L40.0257613,6.60555064 C40.3640726,6.67454742 40.7008761,6.74935201 41.0360558,6.82991837 Z M38.9782639,6.41131245 L38.6487245,8.38397658 C38.3316803,8.33101341 38.013397,8.2834726 37.6939744,8.24138952 L37.9552116,6.25852414 C38.2974662,6.30361528 38.6385203,6.35455726 38.9782639,6.41131245 Z M36.993713,6.14757626 L36.7964503,8.13782435 C36.4765698,8.10611951 36.1557046,8.07985657 35.8339482,8.05906462 L35.9629194,6.06322735 C36.3074747,6.08549256 36.651107,6.113619 36.993713,6.14757626 Z M35.0101882,6.01669869 L34.9440108,8.01560353 C34.6315735,8.00525972 34.3184291,8.00005141 34.004792,8.00000039 C33.9864606,8.00000215 33.9864606,8.00000215 33.9730828,8.00001265 L33.9712027,6.00000041 C33.9856801,6.00000222 33.9856801,6.00000222 34.0049824,6.00000041 C34.340711,6.00005501 34.6758091,6.00562845 35.0101882,6.01669869 Z M32.9386849,6.01843437 L33.0082232,8.01722511 C32.6858688,8.02843988 32.364299,8.04512177 32.0436042,8.06724424 L31.9059654,6.07198597 C32.2493354,6.0482993 32.5936086,6.03043964 32.9386849,6.01843437 Z M30.8733377,6.16105145 L31.0794319,8.15040441 C30.7587416,8.18362747 30.4390862,8.22232177 30.1205631,8.2664546 L29.8460761,6.28537991 C30.1873412,6.23809608 30.5297975,6.19664173 30.8733377,6.16105145 Z M28.8191958,6.44586297 L29.1622808,8.4162164 C28.8452212,8.47142397 28.5294599,8.53205832 28.2151003,8.59807991 L27.8040296,6.64078053 C28.1409652,6.57001754 28.4793917,6.50503088 28.8191958,6.44586297 Z M26.783288,6.87393897 L27.2628358,8.81559649 C26.9500351,8.89285156 26.6388185,8.97548632 26.3292956,9.06345329 L25.782544,7.13963867 C26.1143526,7.04533804 26.4479738,6.9567544 26.783288,6.87393897 Z M24.7730539,7.44596877 L25.3876232,9.34920405 C25.0815495,9.44803762 24.7773486,9.55213825 24.4751343,9.66145033 L23.7948592,7.78069894 C24.1188326,7.66351649 24.4449386,7.55191972 24.7730539,7.44596877 Z M22.8467607,8.1420045 L23.5906834,9.99850097 C23.2919246,10.1182176 22.9953377,10.2430843 22.7010404,10.3730366 L21.8931599,8.5434659 C22.2086085,8.40417379 22.5265176,8.27033014 22.8467607,8.1420045 Z M20.9458432,8.98172076 L21.8171838,10.7819334 C21.5275721,10.9221115 21.2404363,11.0672802 20.955896,11.2173662 L20.0228072,9.4483706 C20.3277391,9.28752875 20.6354605,9.13195249 20.9458432,8.98172076 Z M19.1021665,9.95482942 L20.0967514,11.6899954 C19.8176078,11.8499985 19.5412475,12.0148067 19.2677905,12.1843377 L18.2139664,10.4844981 C18.5069574,10.3028569 18.8030668,10.1262713 19.1021665,9.95482942 Z M17.3278577,11.0556219 L18.4406944,12.7174265 C18.1732237,12.8965397 17.9088449,13.0802508 17.6476773,13.2684688 L16.4783424,11.6459226 C16.7581105,11.4442997 17.0413245,11.2475004 17.3278577,11.0556219 Z M15.6276632,12.2820908 L16.8535051,13.8623792 C16.5990496,14.0597623 16.3479905,14.2615108 16.1004443,14.4675259 L14.8210779,12.9302485 C15.0862146,12.7095941 15.3551178,12.4935063 15.6276632,12.2820908 Z M14.051064,13.5933494 L15.3814902,15.0866566 C15.1409906,15.3009239 14.9041755,15.5193077 14.6711574,15.7417022 L13.2903095,14.2948922 C13.5398666,14.0567127 13.7934914,13.8228276 14.051064,13.5933494 Z M12.578125,14.9975286 L14.0061661,16.3977781 C13.7807522,16.627666 13.5592923,16.8614019 13.3418933,17.0988746 L11.8667057,15.7483852 C12.0995356,15.4940568 12.3367133,15.2437318 12.578125,14.9975286 Z M11.1755775,16.530048 L12.6965839,17.8287163 C12.487611,18.0734664 12.2828521,18.3217776 12.0824072,18.5735343 L10.517762,17.3277873 C10.7324521,17.0581388 10.9517595,16.7921847 11.1755775,16.530048 Z M9.87887569,18.1595315 L11.4859423,19.3500512 C11.2942208,19.6088534 11.1069663,19.8709269 10.9242712,20.1361527 L9.27720946,19.0016098 C9.47291812,18.7174916 9.67350653,18.4367566 9.87887569,18.1595315 Z M8.69716892,19.8759659 L10.3828389,20.95231 C10.2096765,21.2235009 10.041197,21.4976538 9.87748424,21.774649 L8.15572316,20.7570347 C8.33113255,20.4602493 8.51164447,20.166517 8.69716892,19.8759659 Z M7.63700445,21.6708955 L9.39339391,22.627502 C9.23942738,22.9101942 9.09034888,23.1955441 8.94623355,23.4834317 L7.1578056,22.5881521 C7.31225078,22.2796294 7.47201069,21.9738344 7.63700445,21.6708955 Z M6.70185376,23.5406607 L8.52080987,24.3721646 C8.38702466,24.6648264 8.25829858,24.9598356 8.13469772,25.2570742 L6.28799615,24.4891593 C6.4204816,24.1705548 6.55845793,23.8543463 6.70185376,23.5406607 Z M5.89985643,25.4712934 L7.77260662,26.1732954 C7.6596778,26.4745588 7.55195114,26.7778631 7.44948388,27.0830935 L5.55347039,26.446593 C5.66331581,26.1193845 5.77879845,25.7942432 5.89985643,25.4712934 Z M5.23361041,27.4588708 L7.15111229,28.0273658 C7.05971342,28.3356491 6.97362391,28.6456711 6.89289244,28.9573215 L4.95679788,28.4557861 C5.04334141,28.1216991 5.13562978,27.7893541 5.23361041,27.4588708 Z M4.7088271,29.4885238 L6.66156374,29.9207502 C6.59207194,30.2347041 6.52796942,30.5501064 6.46929699,30.8668523 L4.50275052,30.5025791 C4.5656349,30.1630948 4.6343417,29.8250382 4.7088271,29.4885238 Z M4.33393436,31.5096811 L6.31176872,31.8066175 C6.26404649,32.1244858 6.22175405,32.443529 6.18492516,32.7636489 L4.19803105,32.5350623 C4.23748769,32.1921019 4.28280073,31.850272 4.33393436,31.5096811 Z M4.10710281,33.4476867 L6.10003612,33.6156653 C6.07303806,33.935976 6.05148185,34.257217 6.03539529,34.5792965 L4.03788523,34.479529 C4.05510883,34.134684 4.07819099,33.7907027 4.10710281,33.4476867 Z M4.0037121,35.5233708 L6.00346922,35.554539 C6.00116938,35.7020972 6.00001226,35.8498015 6.0000001,35.997562 C6,36.1737842 6.00158204,36.3476765 6.00475855,36.5216536 L4.00509183,36.5581638 C4.00169277,36.3719973 4,36.1859342 4.0000001,35.9974791 C4.00001312,35.8393017 4.0012512,35.6812625 4.0037121,35.5233708 Z M4.04156167,37.592367 L6.03882932,37.4878589 C6.05566971,37.8096977 6.07797354,38.1306905 6.10571282,38.4507455 L4.11318252,38.6234388 C4.0834762,38.2806883 4.05959289,37.9369637 4.04156167,37.592367 Z M4.22072383,39.6567541 L6.20610749,39.4154001 C6.24504665,39.7357147 6.28946292,40.054925 6.33932177,40.3729317 L4.36345937,40.6827184 C4.31003408,40.3419644 4.26244334,39.9999398 4.22072383,39.6567541 Z M4.54200765,41.7052415 L6.50592545,41.3270526 C6.56676649,41.6429974 6.63301964,41.9575734 6.70464348,42.2706758 L4.75500437,42.7166661 C4.67823193,42.3810567 4.60721818,42.0438769 4.54200765,41.7052415 Z M5.00729477,43.7365028 L6.93999837,43.2220548 C7.02274856,43.5329348 7.11084107,43.8421609 7.20422655,44.1496227 L5.29054991,44.7308643 C5.19043922,44.4012604 5.09600307,44.0697665 5.00729477,43.7365028 Z M5.61588092,45.7373255 L7.50770208,45.0884706 C7.61221606,45.3931948 7.72198432,45.6959627 7.8369487,45.996659 L5.96882905,46.7108921 C5.84559007,46.3885531 5.72791974,46.0639893 5.61588092,45.7373255 Z M6.34518611,47.6474152 L8.1880517,46.8703396 C8.3131164,47.1669355 8.44329489,47.4612808 8.57852045,47.7532571 L6.76370828,48.593767 C6.61877047,48.2808201 6.47923907,47.9653271 6.34518611,47.6474152 Z M7.22004233,49.5354575 L9.00430655,48.6319083 C9.14969912,48.9190191 9.30003937,49.2035737 9.45525165,49.4854521 L7.70329024,50.4501444 C7.53696389,50.1480819 7.37585411,49.8431435 7.22004233,49.5354575 Z M8.22635464,51.3618441 L9.94340459,50.3363006 C10.1083893,50.6125318 10.2781271,50.8859006 10.4525334,51.1562871 L8.77183645,52.2403802 C8.58498189,51.9506948 8.40312442,51.6578068 8.22635464,51.3618441 Z M9.3593934,53.117089 L11.0009891,51.9746515 C11.1847441,52.2386934 11.3730323,52.4995694 11.565761,52.7571612 L9.96437408,53.9553097 C9.75792839,53.6793844 9.55623509,53.3999355 9.3593934,53.117089 Z M10.6153878,54.7941796 L12.1735543,53.5403387 C12.3754127,53.791191 12.5815711,54.038572 12.7919288,54.2823661 L11.2776938,55.5889236 C11.0523943,55.3278127 10.8315898,55.062857 10.6153878,54.7941796 Z M11.9217471,56.311576 L13.3932866,54.9571124 C13.6111592,55.1938173 13.8330761,55.42678 14.0589304,55.6558899 L12.6346339,57.059948 C12.3927507,56.8145783 12.1550838,56.5650816 11.9217471,56.311576 Z M13.3821911,57.7924324 L14.75695,56.3398354 C14.9908377,56.5611901 15.2285032,56.7785199 15.4698338,56.9917195 L14.1456801,58.4905914 C13.8872164,58.2622559 13.6326801,58.0294988 13.3821911,57.7924324 Z M14.9395932,59.1678726 L16.2110978,57.6240863 C16.4596699,57.8288171 16.7117327,58.0292635 16.9671693,58.2253272 L15.7494108,59.811853 C15.4758117,59.6018485 15.205831,59.3871533 14.9395932,59.1678726 Z M16.5925502,60.43598 L17.7542937,58.8079897 C18.0163471,58.9949926 18.2815916,59.1774726 18.5499078,59.3553395 L17.4448582,61.0223324 C17.1574156,60.8317867 16.8732706,60.6363036 16.5925502,60.43598 Z M18.3285741,61.586198 L19.3747594,59.8816463 C19.6489554,60.0499369 19.9260347,60.2134917 20.205877,60.3722294 L19.2190976,62.1118461 C18.9192449,61.9417578 18.622361,61.7665126 18.3285741,61.586198 Z M20.1464103,62.616458 L21.0712356,60.8431283 C21.3565549,60.9919278 21.6444504,61.1357949 21.9348027,61.2746571 L21.0719017,63.0789303 C20.7607211,62.9301069 20.4521812,62.7759234 20.1464103,62.616458 Z M22.029969,63.5165358 L22.8286781,61.6829427 C23.1236119,61.8114152 23.4208132,61.9347915 23.7201645,62.0530076 L22.9855563,63.9132094 C22.6646748,63.7864908 22.3461035,63.6542433 22.029969,63.5165358 Z M23.9778944,64.2848308 L24.6458771,62.3996785 C24.9491132,62.5071268 25.2543121,62.6093415 25.5613598,62.7062675 L24.959303,64.6134979 C24.6301425,64.5095915 24.3029652,64.400016 23.9778944,64.2848308 Z M25.975683,64.9145493 L26.5094613,62.9870948 C26.8192948,63.0728984 27.1307909,63.1533706 27.4438408,63.2284649 L26.9773163,65.1732926 C26.6417392,65.0927945 26.3078219,65.00653 25.975683,64.9145493 Z M28.0165528,65.4030472 L28.4133795,63.4428103 C28.728447,63.506592 29.0448891,63.5649726 29.3626029,63.6179133 L29.0338751,65.5907128 C28.6933821,65.5339765 28.354237,65.4714074 28.0165528,65.4030472 Z M30.0411666,65.7409985 L30.3026452,63.7581649 C30.6213579,63.8001939 30.9411772,63.8367856 31.2620063,63.8679079 L31.0689011,65.8585637 C30.7252315,65.8252257 30.3826177,65.786026 30.0411666,65.7409985 Z M31.9803215,65.9330513 L32.1130442,63.93746 C32.4337806,63.9587915 32.7553829,63.9746833 33.0777612,63.9851089 L33.0131153,65.9840639 C32.6680241,65.9729037 32.3237263,65.9558904 31.9803215,65.9330513 Z" id="Oval-Copy" fill="#49DDBA" opacity="0.340000004"></path>
            </g>
        </g>
    </g>
</svg>